<?xml version="1.0" encoding="UTF-8"?>
<svg width="40px" height="27px" viewBox="0 0 40 27" version="1.1" xmlns="http://www.w3.org/2000/svg" xmlns:xlink="http://www.w3.org/1999/xlink">
    <title>behance</title>
    <g id="Page-1" stroke="none" stroke-width="1" fill="none" fill-rule="evenodd">
        <g id="behance" transform="translate(0.259000, 0.566000)" fill="#778DA9" fill-rule="nonzero">
            <path d="M12.272,20.799 L5.566,20.799 L5.566,14.0379709 L12.63,14.0379709 C12.63,14.0379709 15.19,14.002 15.19,17.511 C15.19,20.47 13.278,20.778 12.272,20.799 Z M5.566,4.494 L12.63,4.494 C12.63,4.494 14.348,4.494 14.348,7.124 C14.348,9.758 13.339,10.139 12.192,10.139 L5.566,10.139 L5.566,4.494 Z M15.797,11.546 C15.797,11.546 19.499,11.259 19.499,6.735 C19.499,2.205 16.47,0 12.63,0 L0,0 L0,25.296 L12.63,25.296 C12.63,25.296 20.343,25.548 20.343,17.829 C20.341,17.827 20.677,11.546 15.797,11.546 L15.797,11.546 Z" id="Fill-20"></path>
            <path d="M34.4230286,14.038 L26.45,14.038 C26.45,14.038 26.971,10.139 30.72,10.139 C34.47,10.139 34.4230286,14.038 34.4230286,14.038 Z M30.624,6.433 C21.288,6.433 21.296,16.153 21.296,16.153 C21.296,16.153 20.658,25.823 30.624,25.823 C30.624,25.823 38.928,26.32 38.928,19.096 L34.658,19.096 C34.658,19.096 34.799,21.819 30.767,21.819 C30.767,21.819 26.493,22.116 26.493,17.416 L39.063,17.416 C39.065,17.414 40.45,6.433 30.624,6.433 L30.624,6.433 Z" id="Fill-21"></path>
            <polygon id="Fill-22" points="25.401 4.605 35.415 4.605 35.415 1.486 25.401 1.486"></polygon>
        </g>
    </g>
</svg>