<?xml version="1.0" encoding="UTF-8"?>
<svg width="35px" height="35px" viewBox="0 0 35 35" version="1.1" xmlns="http://www.w3.org/2000/svg" xmlns:xlink="http://www.w3.org/1999/xlink">
    <title>in</title>
    <g id="Page-1" stroke="none" stroke-width="1" fill="none" fill-rule="evenodd">
        <g id="in" fill="#778DA9" fill-rule="nonzero">
            <path d="M7.591,3.796 C7.591,5.883 6.262,7.591 3.796,7.591 C1.518,7.591 0,5.883 0,3.986 C0,1.898 1.518,0 3.796,0 C6.073,0 7.591,1.708 7.591,3.796" id="Fill-1"></path>
            <polygon id="Fill-2" points="0 34.159 7.591 34.159 7.591 9.489 0 9.489"></polygon>
            <path d="M25.809,9.868 C21.824,9.868 19.547,12.145 18.598,13.663 L18.408,13.663 L18.028,10.437 L11.196,10.437 C11.196,12.525 11.386,14.992 11.386,17.839 L11.386,34.158 L18.977,34.158 L18.977,20.685 C18.977,19.926 18.977,19.357 19.167,18.787 C19.736,17.459 20.685,15.751 22.773,15.751 C25.429,15.751 26.568,18.028 26.568,21.065 L26.568,34.158 L34.159,34.158 L34.159,20.116 C34.159,13.094 30.553,9.868 25.809,9.868" id="Fill-3"></path>
        </g>
    </g>
</svg>