<?xml version="1.0" encoding="UTF-8"?>
<svg width="42px" height="35px" viewBox="0 0 42 35" version="1.1" xmlns="http://www.w3.org/2000/svg" xmlns:xlink="http://www.w3.org/1999/xlink">
    <title>twitter</title>
    <g id="Page-1" stroke="none" stroke-width="1" fill="none" fill-rule="evenodd">
        <g id="twitter" transform="translate(0.000000, -0.000000)" fill="#778DA9" fill-rule="nonzero">
            <path d="M0,30.1880194 C4.574,30.5890194 8.58,29.4990194 12.286,26.8480194 C11.484,26.6450194 10.803,26.5070194 10.144,26.2990194 C7.661,25.5160194 5.936,23.8740194 4.861,21.5310194 C4.529,20.8080194 4.602,20.7500194 5.39,20.7620194 C6.206,20.7760194 7.036,20.8950194 8.005,20.5290194 C6.52,20.1030194 5.334,19.4470194 4.329,18.5090194 C2.717,17.0050194 1.761,15.1550194 1.593,12.9390194 C1.524,12.0430194 1.638,11.9810194 2.436,12.3450194 C3.218,12.7010194 4.025,12.9340194 5.005,12.9410194 C4.394,12.2390194 3.733,11.7310194 3.262,11.0470194 C1.392,8.33401937 1.075,5.46301937 2.365,2.42701937 C2.709,1.61901937 2.846,1.58901937 3.429,2.24401937 C6.29,5.45801937 9.723,7.82001937 13.795,9.23501937 C15.591,9.85901937 17.438,10.2650194 19.328,10.4580194 C20.298,10.5570194 20.382,10.4530194 20.27,9.50301937 C19.872,6.11701937 21.788,2.57501937 24.892,0.959019373 C28.002,-0.659980627 31.988,-0.198980627 34.517,2.11401937 C35.01,2.56501937 35.48,2.66301937 36.099,2.49301937 C37.419,2.13101937 38.694,1.66301937 39.906,1.02201937 C40.092,0.924019373 40.257,0.719019373 40.611,0.849019373 C40.031,2.66201937 38.883,4.04301937 37.431,5.23401937 C38.861,5.06301937 40.198,4.65201937 41.582,4.11101937 C41.614,4.58801937 41.332,4.82901937 41.133,5.08601937 C40.282,6.18801937 39.335,7.20701937 38.211,8.03501937 C37.685,8.42201937 37.506,8.86701937 37.516,9.50901937 C37.603,15.2050194 35.775,20.2860194 32.368,24.7890194 C28.322,30.1390194 22.886,33.1570194 16.243,33.9640194 C10.758,34.6300194 5.593,33.5900194 0.788,30.8360194 C0.613,30.7360194 0.443,30.6250194 0.278,30.5100194 C0.22,30.4700194 0.181,30.4020194 0,30.1880194" id="Fill-31"></path>
        </g>
    </g>
</svg>