<?xml version="1.0" encoding="UTF-8"?>
<svg width="500px" height="500px" viewBox="0 0 500 500" version="1.1" xmlns="http://www.w3.org/2000/svg" xmlns:xlink="http://www.w3.org/1999/xlink">
    <title>2530836</title>
    <defs>
        <path d="M140.773,70.387 C140.773,109.26 109.26,140.773 70.387,140.773 C31.513,140.773 0,109.26 0,70.387 C0,31.513 31.513,0 70.387,0 C109.26,0 140.773,31.513 140.773,70.387" id="path-1"></path>
    </defs>
    <g id="2530836" stroke="none" stroke-width="1" fill="none" fill-rule="evenodd">
        <path d="M33.64,233.86 C33.64,176.688 106.536,54.516 210.22,71.05 C284.728,82.932 253.783,165.446 391.969,196.19 C499.582,220.132 468.726,373.251 317.612,381.557 C149.966,390.77 33.64,341.04 33.64,233.86" id="Fill-1" fill="#F3F5F4"></path>
        <path d="M391.915,272.836 C343.863,312.223 376.24,379.823 395.172,373.577 C412.077,367.999 371.188,279.318 310.787,286.32 C211.325,297.851 183.309,343.831 115.535,325.85 C47.289,307.743 34.036,231.967 100.289,188.721 C166.31,145.626 61.31,71.889 53.048,95.679 C48.335,109.25 100.453,142.548 137.645,110.864 C174.837,79.181 224.086,75.123 255.02,132.767 C285.953,190.41 349.07,156.274 389.377,148.35 C429.684,140.425 495.193,188.184 391.915,272.836 Z" id="Stroke-2" stroke="#70927F" stroke-width="0.25"></path>
        <path d="M416.63,172.642 C416.63,211.515 385.117,243.028 346.244,243.028 C307.371,243.028 275.857,211.515 275.857,172.642 C275.857,133.769 307.371,102.255 346.244,102.255 C385.117,102.255 416.63,133.769 416.63,172.642" id="Fill-3" fill="#FFFFFF"></path>
        <path d="M422.331,170.958 C422.331,209.831 390.818,241.344 351.945,241.344 C313.071,241.344 281.558,209.831 281.558,170.958 C281.558,132.084 313.071,100.571 351.945,100.571 C390.818,100.571 422.331,132.084 422.331,170.958" id="Fill-4" fill="#F3F5F4"></path>
        <path d="M416.63,172.642 C416.63,211.515 385.117,243.028 346.244,243.028 C307.371,243.028 275.857,211.515 275.857,172.642 C275.857,133.769 307.371,102.255 346.244,102.255 C385.117,102.255 416.63,133.769 416.63,172.642 Z" id="Stroke-5" stroke="#70927F" stroke-width="0.25"></path>
        <g id="Group-33" transform="translate(281.558000, 100.571000)">
            <mask id="mask-2" fill="white">
                <use xlink:href="#path-1"></use>
            </mask>
            <g id="Clip-7"></g>
            <polyline id="Fill-6" fill="#B14330" mask="url(#mask-2)" points="52.292 142.457 40.655 142.457 41.572 116.942 51.718 116.942 52.292 142.457"></polyline>
            <polyline id="Fill-8" fill="#FFB84F" mask="url(#mask-2)" points="45.575 73.69 33.446 115.518 37.613 119.654 33.446 124.683 55.533 127.155 45.575 73.69"></polyline>
            <polyline id="Fill-9" fill="#FFB84F" mask="url(#mask-2)" points="52.292 143.372 86.64 143.372 98.487 68.583 79.429 67.387 58.021 68.583 45.575 73.69 52.292 143.372"></polyline>
            <polyline id="Fill-10" fill="#B14330" mask="url(#mask-2)" points="63.824 79.73 79.429 67.387 73.717 48.477 57.139 50.65 63.824 79.73"></polyline>
            <polyline id="Fill-11" fill="#5F281C" mask="url(#mask-2)" points="60.549 65.486 68.185 55.961 57.139 50.65 60.549 65.486"></polyline>
            <path d="M45.914,40.592 C45.145,49.289 48.008,59.949 56.705,60.717 C65.402,61.486 75.924,51.141 76.693,42.444 C77.462,33.747 80.673,19.289 68.88,18.246 C51.74,16.731 46.683,31.894 45.914,40.592" id="Fill-12" fill="#B14330" mask="url(#mask-2)"></path>
            <path d="M61.672,32.869 C61.672,32.869 62.06,35.879 65.555,37.723 M48.513,33.398 C48.513,33.398 50.763,34.14 52.675,32.869" id="Stroke-13" stroke="#422E2D" mask="url(#mask-2)"></path>
            <path d="M51.382,48.477 C51.382,48.477 55.429,48.88 61.438,48.477 C61.438,48.477 58.382,52.23 53.853,51.849 C52.812,51.762 51.382,48.477 51.382,48.477" id="Fill-14" fill="#FFFFFF" mask="url(#mask-2)"></path>
            <path d="M60.214,40.231 C60.214,41.453 60.762,42.444 61.438,42.444 C62.114,42.444 62.662,41.453 62.662,40.231 C62.662,39.01 62.114,38.019 61.438,38.019 C60.762,38.019 60.214,39.01 60.214,40.231" id="Fill-15" fill="#422E2D" mask="url(#mask-2)"></path>
            <path d="M49.27,38.865 C49.27,40.087 49.818,41.077 50.494,41.077 C51.17,41.077 51.718,40.087 51.718,38.865 C51.718,37.643 51.17,36.653 50.494,36.653 C49.818,36.653 49.27,37.643 49.27,38.865" id="Fill-16" fill="#422E2D" mask="url(#mask-2)"></path>
            <path d="M54.364,40.231 C54.364,40.231 53.431,43.938 49.066,43.656 C49.066,43.656 54.589,50.729 54.364,40.231" id="Fill-17" fill="#9A2532" mask="url(#mask-2)"></path>
            <path d="M79.429,45.987 C90.233,33.064 94.346,30.275 79.429,19.928 C79.429,19.928 77.972,10.1 65.141,13.264 C45.363,18.141 48.996,19.928 48.355,30.707 C48.355,30.707 59.017,32.074 67.626,27.044 C67.626,27.044 67.925,33.101 71.466,36.193 L70.852,42.673 L79.429,45.987" id="Fill-18" fill="#422E2D" mask="url(#mask-2)"></path>
            <path d="M79.429,19.928 C79.429,19.928 80.728,17.217 79.429,14.393 M78.556,21.417 C78.556,21.417 83.254,19.325 83.645,17.161" id="Stroke-19" stroke="#422E2D" mask="url(#mask-2)"></path>
            <path d="M71.959,43.088 C70.686,46.454 71.774,49.985 74.388,50.974 C77.003,51.963 80.155,50.035 81.428,46.669 C82.701,43.303 81.613,39.772 78.998,38.783 C76.383,37.795 73.232,39.722 71.959,43.088" id="Fill-20" fill="#B14330" mask="url(#mask-2)"></path>
            <polyline id="Fill-21" fill="#FFB84F" mask="url(#mask-2)" points="82.525 68.583 78.556 58.565 56.41 63.721 62.662 82.585 82.525 68.583"></polyline>
            <polyline id="Fill-22" fill="#FFD788" mask="url(#mask-2)" points="57.139 65.921 69.542 65.258 58.021 68.583 57.139 65.921"></polyline>
            <polyline id="Fill-23" fill="#FFB84F" mask="url(#mask-2)" points="98.487 68.583 101.306 123.93 83.88 133.07 82.525 68.583 98.487 68.583"></polyline>
            <path d="M76.572,59.503 L70.769,57.694 C70.081,57.479 69.696,56.747 69.911,56.058 L74.538,41.215 C74.753,40.527 75.484,40.143 76.172,40.357 L81.976,42.166 C82.665,42.381 83.049,43.113 82.834,43.802 L78.208,58.645 C77.993,59.333 77.261,59.717 76.572,59.503" id="Fill-24" fill="#A5BBAA" mask="url(#mask-2)"></path>
            <path d="M78.153,59.995 L72.058,58.095 C71.369,57.881 70.985,57.149 71.2,56.46 L75.827,41.617 C76.041,40.929 76.773,40.545 77.462,40.759 L83.557,42.659 C84.246,42.874 84.63,43.606 84.415,44.294 L79.788,59.137 C79.574,59.826 78.842,60.21 78.153,59.995" id="Fill-25" fill="#E8DFCF" mask="url(#mask-2)"></path>
            <path d="M78.674,43.544 C78.523,44.028 78.008,44.299 77.523,44.147 C77.039,43.996 76.768,43.481 76.92,42.997 C77.07,42.512 77.586,42.242 78.07,42.393 C78.555,42.544 78.825,43.059 78.674,43.544" id="Fill-26" fill="#A5BBAA" mask="url(#mask-2)"></path>
            <path d="M97.797,121.566 L81.04,59.133 L78.495,60.288 C78.495,60.288 76.119,108.531 86.989,126.942 L97.797,121.566" id="Fill-27" fill="#B14330" mask="url(#mask-2)"></path>
            <path d="M81.04,59.133 L86.018,48.21 C86.018,48.21 72.913,51.314 78.495,60.288 L81.04,59.133" id="Fill-28" fill="#B14330" mask="url(#mask-2)"></path>
            <path d="M86.018,48.21 L80.182,43.109 C80.182,43.109 78.13,46.519 84.972,48.865 L86.018,48.21" id="Fill-29" fill="#B14330" mask="url(#mask-2)"></path>
            <path d="M78.484,52.448 L81.796,50.281 L78.337,45.987 C78.337,45.987 77.11,48.21 80.263,50.466 L78.484,52.448" id="Fill-30" fill="#B14330" mask="url(#mask-2)"></path>
            <path d="M84.972,48.865 L78.822,43.99 C78.822,43.99 77.048,47.094 84.022,49.248 L84.972,48.865" id="Fill-31" fill="#B14330" mask="url(#mask-2)"></path>
            <polyline id="Fill-32" fill="#FFD788" mask="url(#mask-2)" points="52.292 143.372 45.575 73.69 56.41 143.372 52.292 143.372"></polyline>
        </g>
        <polygon id="Fill-34" fill="#86593E" points="152.128 367.678 208.116 367.678 208.116 359.459 152.128 359.459"></polygon>
        <polyline id="Fill-35" fill="#B58E67" points="229.511 408.021 222.539 408.021 189.701 316.542 196.673 316.542 229.511 408.021"></polyline>
        <polyline id="Fill-36" fill="#B58E67" points="173.282 408.021 180.254 408.021 188.463 316.542 181.491 316.542 173.282 408.021"></polyline>
        <polyline id="Fill-37" fill="#B58E67" points="132.234 408.021 139.207 408.021 172.044 316.542 165.072 316.542 132.234 408.021"></polyline>
        <path d="M198.943,251.828 L141.062,251.828 C139.829,251.828 138.828,252.828 138.828,254.063 L138.828,313.809 C138.828,315.771 140.419,317.362 142.382,317.362 L204.363,317.362 L204.363,257.248 C204.363,254.255 201.937,251.828 198.943,251.828" id="Fill-38" fill="#FFB84F"></path>
        <path d="M222.293,326.09 L167.353,326.09 L167.353,317.362 L222.293,317.362 C224.703,317.362 226.657,319.316 226.657,321.727 C226.657,324.137 224.703,326.09 222.293,326.09" id="Fill-39" fill="#FFB84F"></path>
        <path d="M143.539,307.987 L143.539,255.522 C143.539,253.482 141.885,251.828 139.845,251.828 C137.805,251.828 136.15,253.482 136.15,255.522 L136.15,308.677 C136.15,318.294 143.946,326.09 153.563,326.09 L166.357,326.09 C168.767,326.09 170.721,324.136 170.721,321.727 C170.721,319.316 168.767,317.362 166.357,317.362 L152.915,317.362 C147.736,317.362 143.539,313.165 143.539,307.987" id="Fill-40" fill="#FFD788"></path>
        <path d="M202.795,316.542 L173.354,316.542 C159.579,316.542 149.789,303.135 153.983,290.014 L158.845,274.806 L202.024,269.588 L202.795,316.542" id="Fill-41" fill="#B7C9B9"></path>
        <polyline id="Fill-42" fill="#EFEBDF" points="207.19 212.859 219.603 257.073 207.19 257.073 194.136 234.966 207.19 212.859"></polyline>
        <path d="M219.033,255.043 L250.863,261.199 L250,263.852 C250,263.852 221.754,270.585 207.19,257.073 L219.033,255.043" id="Fill-43" fill="#5F281C"></path>
        <path d="M250.863,261.199 L264.555,259.954 L260.761,263.37 C257.75,266.081 253.241,266.283 250,263.852 L250.863,261.199" id="Fill-44" fill="#5F281C"></path>
        <path d="M264.555,259.954 L267.042,265.548 C267.042,265.548 263.431,266.367 263.495,260.909 L264.555,259.954" id="Fill-45" fill="#5F281C"></path>
        <path d="M261.526,260.682 L263.781,266.587 C263.781,266.587 259.614,267.053 261.526,260.682" id="Fill-46" fill="#5F281C"></path>
        <path d="M264.555,259.954 L269.209,263.638 C269.209,263.638 266.07,265.295 264.232,260.682 L264.555,259.954" id="Fill-47" fill="#5F281C"></path>
        <polygon id="Fill-48" fill="#FFFFFF" points="200.116 268.036 257.938 268.036 257.938 263.928 200.116 263.928"></polygon>
        <path d="M207.19,212.859 L193.457,207.319 L177.245,207.319 L156.519,213.48 L165.837,252.86 L157.336,274.114 L197.48,274.114 L194.402,251.876 L194.53,251.484 C195.266,249.241 196.922,247.46 199.03,246.399 C202.619,244.591 204.7,242.156 204.994,239.567 C205.124,238.417 205.019,237.093 204.76,235.693 C203.589,229.38 203.907,222.879 205.907,216.777 L207.19,212.859" id="Fill-49" fill="#FFFFFF"></path>
        <path d="M199.754,247.6 C201.998,246.47 203.981,244.022 204.605,241.093 C204.605,241.093 199.684,245.515 182.614,243.925 C162.923,242.09 175.206,256.643 168.174,274.114 L197.48,274.114 L194.402,251.876 L194.53,251.483 C195.266,249.241 197.646,248.661 199.754,247.6" id="Fill-50" fill="#EFEBDF"></path>
        <polyline id="Fill-51" fill="#B14330" points="190.963 218.169 177.245 207.319 184.513 192.606 196.839 192.606 190.963 218.169"></polyline>
        <polyline id="Fill-52" fill="#5F281C" points="193.841 205.648 187.129 197.275 196.839 192.606 193.841 205.648"></polyline>
        <path d="M183.822,162.404 C183.822,162.404 187.042,159.752 191.069,159.752 C194.586,159.752 203.62,163.464 206.978,171.949 C210.337,180.434 211.605,187.61 208.252,197.227 L193.425,192.606 L183.822,162.404" id="Fill-53" fill="#422E2D"></path>
        <path d="M206.707,183.765 C207.382,191.41 204.866,200.78 197.22,201.456 C189.575,202.132 178.165,193.038 177.489,185.393 C176.813,177.748 176.151,165.038 186.518,164.122 C201.585,162.79 206.031,176.119 206.707,183.765" id="Fill-54" fill="#B14330"></path>
        <path d="M200.674,177.605 C200.674,177.605 202.802,176.498 204.521,177.989" id="Stroke-55" stroke="#422E2D"></path>
        <path d="M176.52,184.192 C176.52,184.192 194.514,183.987 198.483,168.283 C198.483,168.283 201.221,168.753 204.994,172.99 C204.994,172.99 203.186,163.709 188.19,163.709 C172.896,163.709 176.52,184.192 176.52,184.192" id="Fill-56" fill="#422E2D"></path>
        <path d="M198.204,167.105 C198.204,167.105 201.167,179.334 181.969,183.411" id="Stroke-57" stroke="#422E2D"></path>
        <path d="M183.822,181.346 C183.822,181.346 180.866,190.696 185.317,199.579 C185.317,199.579 170.7,201.492 161.062,190.695 C160.825,180.952 165.693,171.498 171.812,165.21 C176.932,159.95 191.475,158.234 195.164,168.283 C195.164,168.283 185.136,167.991 183.822,181.346" id="Fill-58" fill="#422E2D"></path>
        <path d="M209.678,197.884 C209.678,197.884 216.493,178.802 201.604,166.011 M159.561,189.287 C159.561,189.287 161.053,159.752 186.402,161.921" id="Stroke-59" stroke="#422E2D"></path>
        <path d="M201.9,190.696 C201.9,190.696 198.342,191.051 193.06,190.696 C193.06,190.696 195.746,193.995 199.727,193.66 C200.643,193.583 201.9,190.696 201.9,190.696" id="Fill-60" fill="#FFFFFF"></path>
        <path d="M194.136,183.448 C194.136,184.522 193.654,185.393 193.06,185.393 C192.466,185.393 191.984,184.522 191.984,183.448 C191.984,182.374 192.466,181.503 193.06,181.503 C193.654,181.503 194.136,182.374 194.136,183.448" id="Fill-61" fill="#422E2D"></path>
        <path d="M203.756,182.247 C203.756,183.321 203.274,184.192 202.68,184.192 C202.086,184.192 201.604,183.321 201.604,182.247 C201.604,181.172 202.086,180.302 202.68,180.302 C203.274,180.302 203.756,181.172 203.756,182.247" id="Fill-62" fill="#422E2D"></path>
        <path d="M199.279,183.448 C199.279,183.448 200.099,186.707 203.936,186.458 C203.936,186.458 199.081,192.676 199.279,183.448" id="Fill-63" fill="#9A2532"></path>
        <path d="M183.871,185.959 C184.99,188.918 184.034,192.022 181.735,192.891 C179.437,193.76 176.666,192.066 175.547,189.107 C174.428,186.148 175.384,183.044 177.683,182.175 C179.981,181.306 182.752,183 183.871,185.959" id="Fill-64" fill="#B14330"></path>
        <polygon id="Fill-65" fill="#709480" points="177.076 183.411 179.245 183.411 179.245 171.8 177.076 171.8"></polygon>
        <polygon id="Fill-66" fill="#B4C6B6" points="175.631 183.411 177.8 183.411 177.8 171.8 175.631 171.8"></polygon>
        <path d="M180.482,174.417 L180.482,168.795 C180.482,166.393 181.901,164.002 183.958,162.761 C185.034,162.113 188.079,160.216 188.079,160.216 C188.079,160.216 182.794,160.221 180.446,161.122 L179.828,161.359 C177.346,162.313 175.708,164.696 175.708,167.354 L175.708,174.417 L180.482,174.417" id="Fill-67" fill="#709480"></path>
        <path d="M179.038,174.417 L179.038,168.795 C179.038,166.393 180.379,164.191 182.514,163.089 L188.079,160.216 L186.376,160.073 C183.871,159.862 181.349,160.221 179.001,161.122 L178.383,161.359 C175.901,162.313 174.263,164.696 174.263,167.354 L174.263,174.417 L179.038,174.417" id="Fill-68" fill="#B4C6B6"></path>
        <path d="M183.822,186.088 C183.822,189.479 181.073,192.229 177.682,192.229 C174.291,192.229 171.542,189.479 171.542,186.088 C171.542,182.697 174.291,179.948 177.682,179.948 C181.073,179.948 183.822,182.697 183.822,186.088" id="Fill-69" fill="#B4C6B6"></path>
        <path d="M182.614,186.088 C182.614,189.479 179.864,192.229 176.473,192.229 C173.082,192.229 170.333,189.479 170.333,186.088 C170.333,182.697 173.082,179.948 176.473,179.948 C179.864,179.948 182.614,182.697 182.614,186.088" id="Fill-70" fill="#F1EADF"></path>
        <path d="M180.326,186.088 C180.326,188.216 178.601,189.94 176.473,189.94 C174.346,189.94 172.621,188.216 172.621,186.088 C172.621,183.96 174.346,182.236 176.473,182.236 C178.601,182.236 180.326,183.96 180.326,186.088" id="Fill-71" fill="#B4C6B6"></path>
        <path d="M178.223,186.088 C178.223,187.054 177.439,187.837 176.473,187.837 C175.507,187.837 174.724,187.054 174.724,186.088 C174.724,185.122 175.507,184.339 176.473,184.339 C177.439,184.339 178.223,185.122 178.223,186.088" id="Fill-72" fill="#F1EADF"></path>
        <polyline id="Fill-73" fill="#F1EADF" points="198.311 198.38 183.697 196.699 176.071 186.386 176.875 185.791 184.243 195.755 198.425 197.387 198.311 198.38"></polyline>
        <path d="M198.632,198.885 L195.046,198.885 C194.69,198.885 194.402,198.597 194.402,198.241 L194.402,196.834 C194.402,196.479 194.69,196.19 195.046,196.19 L198.632,196.19 C198.988,196.19 199.276,196.479 199.276,196.834 L199.276,198.241 C199.276,198.597 198.988,198.885 198.632,198.885" id="Fill-74" fill="#B4C6B6"></path>
        <polyline id="Fill-75" fill="#EFEBDF" points="166.88 237.198 164.082 245.444 162.422 239.743 166.88 237.198"></polyline>
        <polyline id="Fill-76" fill="#FFFFFF" points="156.519 213.48 138.833 257.604 153.443 257.604 166.88 237.198 156.519 213.48"></polyline>
        <path d="M234.427,268.036 L221.754,268.036 C221.754,264.536 224.591,261.699 228.091,261.699 C231.59,261.699 234.427,264.536 234.427,268.036" id="Fill-77" fill="#B7C9B9"></path>
        <path d="M155.532,254.433 L217.039,261.199 L216.175,263.852 C216.175,263.852 168.174,280.246 138.833,257.604 L155.532,254.433" id="Fill-78" fill="#B1432D"></path>
        <path d="M217.039,261.199 L230.73,259.954 L226.937,263.37 C223.925,266.081 219.417,266.283 216.175,263.852 L217.039,261.199" id="Fill-79" fill="#B1432D"></path>
        <path d="M230.73,259.954 L233.218,265.548 C233.218,265.548 229.606,266.367 229.67,260.909 L230.73,259.954" id="Fill-80" fill="#B1432D"></path>
        <path d="M227.702,260.682 L229.957,266.587 C229.957,266.587 225.79,267.053 227.702,260.682" id="Fill-81" fill="#B1432D"></path>
        <path d="M230.73,259.954 L235.385,263.638 C235.385,263.638 232.246,265.295 230.408,260.682 L230.73,259.954" id="Fill-82" fill="#B1432D"></path>
        <path d="M287.709,250.105 L231.369,250.105 C227.841,250.105 225.038,247.14 225.235,243.618 L227.437,207.028 C227.619,203.774 230.311,201.229 233.57,201.229 L289.91,201.229 C293.438,201.229 296.241,204.194 296.043,207.716 L293.842,244.306 C293.66,247.56 290.968,250.105 287.709,250.105" id="Fill-83" fill="#70927F"></path>
        <path d="M291.236,250.105 L234.896,250.105 C231.368,250.105 228.565,247.14 228.763,243.618 L230.963,207.028 C231.146,203.774 233.838,201.229 237.097,201.229 L293.437,201.229 C296.965,201.229 299.768,204.194 299.57,207.716 L297.369,244.306 C297.187,247.56 294.495,250.105 291.236,250.105" id="Fill-84" fill="#A5BBAA"></path>
        <path d="M270.327,258.407 C268.131,258.407 266.351,256.627 266.351,254.432 C266.351,252.235 268.131,250.456 270.327,250.456 C272.523,250.456 274.303,252.235 274.303,254.432 C274.303,256.627 272.523,258.407 270.327,258.407 Z M271.677,236.273 L254.095,236.273 L261.477,263.259 C261.719,264.145 261.052,265.019 260.134,265.019 L242.979,265.019 L242.979,268.101 L274.504,268.101 C277.447,268.101 279.584,265.304 278.811,262.464 L271.677,236.273 L271.677,236.273 Z" id="Fill-85" fill="#70927F"></path>
        <path d="M268.51,225.688 L258.443,225.688 C256.042,225.688 254.095,227.634 254.095,230.035 L254.095,236.273 L272.858,236.273 L272.858,230.035 C272.858,227.634 270.911,225.688 268.51,225.688" id="Fill-86" fill="#70927F"></path>
        <path d="M271.4,225.688 L261.333,225.688 C258.932,225.688 256.985,227.634 256.985,230.035 L256.985,236.273 L275.748,236.273 L275.748,230.035 C275.748,227.634 273.801,225.688 271.4,225.688" id="Fill-87" fill="#E3E3E3"></path>
        <path d="M271.772,258.407 C269.576,258.407 267.795,256.627 267.795,254.432 C267.795,252.235 269.576,250.456 271.772,250.456 C273.968,250.456 275.748,252.235 275.748,254.432 C275.748,256.627 273.968,258.407 271.772,258.407 Z M282.873,262.219 L275.805,236.273 L256.985,236.273 L258.043,240.159 L258.035,240.159 L264.672,264.526 C265.147,266.269 263.899,267.97 262.133,268.101 L278.378,268.101 C281.449,268.101 283.68,265.182 282.873,262.219 L282.873,262.219 Z" id="Fill-88" fill="#E3E3E3"></path>
        <path d="M271.4,225.688 L261.333,225.688 C258.932,225.688 256.985,227.634 256.985,230.035 L256.985,236.273 L275.748,236.273 L275.748,230.035 C275.748,227.634 273.801,225.688 271.4,225.688" id="Fill-89" fill="#A5BBAA"></path>
        <path d="M271.772,258.407 C269.576,258.407 267.795,256.627 267.795,254.432 C267.795,252.235 269.576,250.456 271.772,250.456 C273.968,250.456 275.748,252.235 275.748,254.432 C275.748,256.627 273.968,258.407 271.772,258.407 Z M282.873,262.219 L275.805,236.273 L256.985,236.273 L258.043,240.159 L258.035,240.159 L264.672,264.526 C265.147,266.269 263.899,267.97 262.133,268.101 L278.378,268.101 C281.449,268.101 283.68,265.182 282.873,262.219 L282.873,262.219 Z" id="Fill-90" fill="#A5BBAA"></path>
        <path d="M282.873,262.219 L275.805,236.273 L275.748,236.273 L275.748,230.035 C275.748,227.634 273.801,225.688 271.4,225.688 L261.333,225.688 M275.805,236.273 L282.873,262.219 C283.68,265.182 281.449,268.101 278.378,268.101" id="Stroke-91" stroke="#F3F5F4" stroke-linecap="round" stroke-linejoin="round"></path>
        <path d="M236.26,233.86 C236.252,233.86 236.243,233.859 236.235,233.859 C235.991,233.846 235.804,233.637 235.818,233.393 L237.031,211.763 C237.044,211.52 237.25,211.326 237.498,211.346 C237.742,211.36 237.928,211.569 237.914,211.813 L236.701,233.442 C236.688,233.678 236.493,233.86 236.26,233.86" id="Fill-92" fill="#D1CEC7"></path>
        <path d="M239.143,233.86 C239.134,233.86 239.126,233.859 239.118,233.859 C238.874,233.846 238.687,233.637 238.701,233.393 L239.914,211.763 C239.927,211.52 240.131,211.326 240.38,211.346 C240.624,211.36 240.811,211.569 240.797,211.813 L239.584,233.442 C239.571,233.678 239.375,233.86 239.143,233.86" id="Fill-93" fill="#D1CEC7"></path>
        <path d="M242.026,233.86 C242.018,233.86 242.009,233.859 242,233.859 C241.756,233.846 241.57,233.637 241.583,233.393 L242.797,211.763 C242.811,211.52 243.011,211.326 243.263,211.346 C243.507,211.36 243.694,211.569 243.68,211.813 L242.467,233.442 C242.454,233.678 242.259,233.86 242.026,233.86" id="Fill-94" fill="#D1CEC7"></path>
        <path d="M244.908,233.86 C244.9,233.86 244.892,233.859 244.883,233.859 C244.639,233.846 244.453,233.637 244.466,233.393 L245.68,211.763 C245.693,211.52 245.904,211.326 246.146,211.346 C246.39,211.36 246.577,211.569 246.563,211.813 L245.35,233.442 C245.336,233.678 245.141,233.86 244.908,233.86" id="Fill-95" fill="#D1CEC7"></path>
        <path d="M247.792,233.86 C247.783,233.86 247.774,233.859 247.767,233.859 C247.522,233.846 247.335,233.637 247.35,233.393 L248.563,211.763 C248.576,211.52 248.785,211.326 249.028,211.346 C249.272,211.36 249.459,211.569 249.445,211.813 L248.232,233.442 C248.22,233.678 248.024,233.86 247.792,233.86" id="Fill-96" fill="#D1CEC7"></path>
        <path d="M281.238,233.86 C281.23,233.86 281.222,233.859 281.213,233.859 C280.969,233.846 280.783,233.637 280.796,233.393 L282.01,211.763 C282.023,211.52 282.232,211.326 282.476,211.346 C282.72,211.36 282.907,211.569 282.893,211.813 L281.68,233.442 C281.667,233.678 281.471,233.86 281.238,233.86" id="Fill-97" fill="#D1CEC7"></path>
        <path d="M284.121,233.86 C284.113,233.86 284.104,233.859 284.096,233.859 C283.852,233.846 283.666,233.637 283.679,233.393 L284.893,211.763 C284.905,211.52 285.113,211.326 285.358,211.346 C285.603,211.36 285.79,211.569 285.775,211.813 L284.563,233.442 C284.549,233.678 284.354,233.86 284.121,233.86" id="Fill-98" fill="#D1CEC7"></path>
        <path d="M287.004,233.86 C286.996,233.86 286.987,233.859 286.979,233.859 C286.735,233.846 286.548,233.637 286.563,233.393 L287.775,211.763 C287.789,211.52 287.993,211.326 288.241,211.346 C288.485,211.36 288.672,211.569 288.658,211.813 L287.445,233.442 C287.433,233.678 287.237,233.86 287.004,233.86" id="Fill-99" fill="#D1CEC7"></path>
        <path d="M289.887,233.86 C289.879,233.86 289.87,233.859 289.862,233.859 C289.618,233.846 289.431,233.637 289.445,233.393 L290.658,211.763 C290.671,211.52 290.874,211.326 291.125,211.346 C291.369,211.36 291.555,211.569 291.542,211.813 L290.328,233.442 C290.315,233.678 290.12,233.86 289.887,233.86" id="Fill-100" fill="#D1CEC7"></path>
        <path d="M292.77,233.86 C292.762,233.86 292.753,233.859 292.745,233.859 C292.501,233.846 292.314,233.637 292.328,233.393 L293.541,211.763 C293.554,211.52 293.767,211.326 294.007,211.346 C294.251,211.36 294.438,211.569 294.424,211.813 L293.211,233.442 C293.198,233.678 293.003,233.86 292.77,233.86" id="Fill-101" fill="#D1CEC7"></path>
        <path d="M230.674,285.171 L210.989,285.171 L201.274,390.339 L204.315,390.339 C227.159,329.23 233.717,301.736 235.6,291.032 C236.139,287.972 233.782,285.171 230.674,285.171" id="Fill-102" fill="#B7C9B9"></path>
        <path d="M201.645,386.334 C201.645,386.334 223.453,330.129 217.837,292.147 C217.48,289.729 210.989,285.171 210.989,285.171 L201.645,386.334" id="Fill-103" fill="#A5BBAA"></path>
        <path d="M211.612,285.171 L194.896,285.171 L155.642,386.334 L158.1,390.339 C186.39,346.856 212.217,308.268 217.567,293.722 C219.093,289.571 216.034,285.171 211.612,285.171" id="Fill-104" fill="#B7C9B9"></path>
        <path d="M188.463,302.722 C178.907,305.063 168.845,301.742 166.88,295.753 C164.651,288.959 170.333,285.171 170.333,285.171 L166.143,273.924 L158.845,274.806 L153.983,290.014 C149.789,303.135 159.579,316.542 173.354,316.542 L182.724,316.542 L155.642,386.334 C196.263,321.694 188.463,302.722 188.463,302.722" id="Fill-105" fill="#A5BBAA"></path>
        <polyline id="Fill-106" fill="#70927F" points="158.376 276.271 202.091 276.271 202.283 285.171 155.532 285.171 158.376 276.271"></polyline>
        <polyline id="Fill-107" fill="#B1432D" points="204.315 390.339 204.315 402.874 212.164 403.726 201.915 403.726 201.274 396.06 197.656 391.314 201.645 386.334 204.315 390.339"></polyline>
        <path d="M212.164,403.726 L210.941,408.021 L202.842,408.021 C201.448,408.021 200.317,406.891 200.317,405.496 L200.317,397.046 L196.176,391.662 L201.645,386.334 L201.915,403.726 L212.164,403.726" id="Fill-108" fill="#E8DFCF"></path>
        <polyline id="Fill-109" fill="#E8DFCF" points="196.176 391.662 196.176 408.021 199.024 393.476 196.176 391.662"></polyline>
        <polyline id="Fill-110" fill="#B1432D" points="158.313 390.339 158.313 402.874 166.161 403.726 155.912 403.726 155.271 396.06 151.653 391.314 155.642 386.334 158.313 390.339"></polyline>
        <path d="M166.161,403.726 L164.938,408.021 L156.839,408.021 C155.445,408.021 154.314,406.891 154.314,405.496 L154.314,397.046 L150.173,391.662 L155.642,386.334 L155.912,403.726 L166.161,403.726" id="Fill-111" fill="#E8DFCF"></path>
        <polyline id="Fill-112" fill="#E8DFCF" points="150.173 391.662 150.173 408.021 153.021 393.476 150.173 391.662"></polyline>
        <path d="M148.271,408.021 L122.673,408.021 C118.62,408.021 115.333,404.734 115.333,400.681 L115.333,276.271 L155.611,276.271 L155.611,400.681 C155.611,404.734 152.325,408.021 148.271,408.021" id="Fill-113" fill="#E8DFCF"></path>
        <path d="M142.525,408.021 L116.927,408.021 C112.873,408.021 109.587,404.734 109.587,400.681 L109.587,276.271 L149.864,276.271 L149.864,400.681 C149.864,404.734 146.578,408.021 142.525,408.021" id="Fill-114" fill="#A5BBAA"></path>
        <path d="M304.295,408.021 L278.697,408.021 C274.643,408.021 271.357,404.734 271.357,400.681 L271.357,276.271 L311.635,276.271 L311.635,400.681 C311.635,404.734 308.349,408.021 304.295,408.021" id="Fill-115" fill="#E8DFCF"></path>
        <path d="M298.548,408.021 L272.95,408.021 C268.896,408.021 265.61,404.734 265.61,400.681 L265.61,276.271 L305.888,276.271 L305.888,400.681 C305.888,404.734 302.602,408.021 298.548,408.021" id="Fill-116" fill="#A5BBAA"></path>
        <path d="M97.592,280.721 L301.91,280.721 C304.48,280.721 306.563,278.638 306.563,276.067 L306.563,272.689 C306.563,270.119 304.48,268.036 301.91,268.036 L97.592,268.036 C95.022,268.036 92.939,270.119 92.939,272.689 L92.939,276.067 C92.939,278.638 95.022,280.721 97.592,280.721" id="Fill-117" fill="#A5BBAA"></path>
        <path d="M190.138,280.721 L332.708,280.721 C335.278,280.721 337.362,278.638 337.362,276.067 L337.362,272.689 C337.362,270.119 335.278,268.036 332.708,268.036 L190.138,268.036 C187.568,268.036 185.484,270.119 185.484,272.689 L185.484,276.067 C185.484,278.638 187.568,280.721 190.138,280.721" id="Fill-118" fill="#E8DFCF"></path>
        <polygon id="Fill-119" fill="#70927F" points="109.587 288.138 149.864 288.138 149.864 280.721 109.587 280.721"></polygon>
        <polygon id="Fill-120" fill="#70927F" points="265.61 288.138 305.888 288.138 305.888 280.721 265.61 280.721"></polygon>
        <path d="M319.307,145.98 L309.023,137.746 L243.923,137.746 C239.587,137.746 236.072,134.231 236.072,129.895 L236.072,119.125 C236.072,114.789 239.587,111.274 243.923,111.274 L311.456,111.274 C315.792,111.274 319.307,114.789 319.307,119.125 L319.307,145.98" id="Fill-121" fill="#FFFFFF"></path>
        <path d="M319.307,145.98 L309.023,137.746 L243.923,137.746 C239.587,137.746 236.072,134.231 236.072,129.895 L236.072,119.125 C236.072,114.789 239.587,111.274 243.923,111.274 L311.456,111.274 C315.792,111.274 319.307,114.789 319.307,119.125 L319.307,145.98 Z M245.361,117.822 L290.953,117.822 L245.361,117.822 Z M245.361,123.878 L290.953,123.878 L245.361,123.878 Z M245.361,129.935 L290.953,129.935 L245.361,129.935 Z" id="Stroke-122" stroke="#70927F" stroke-width="0.25"></path>
        <path d="M218.226,182.799 L228.509,174.565 L293.609,174.565 C297.945,174.565 301.46,171.05 301.46,166.713 L301.46,155.944 C301.46,151.607 297.945,148.092 293.609,148.092 L226.077,148.092 C221.741,148.092 218.226,151.607 218.226,155.944 L218.226,182.799" id="Fill-123" fill="#FFFFFF"></path>
        <path d="M218.226,182.799 L228.509,174.565 L293.609,174.565 C297.945,174.565 301.46,171.05 301.46,166.713 L301.46,155.944 C301.46,151.607 297.945,148.092 293.609,148.092 L226.077,148.092 C221.741,148.092 218.226,151.607 218.226,155.944 L218.226,182.799 Z M292.171,154.641 L246.58,154.641 L292.171,154.641 Z M292.171,160.697 L246.58,160.697 L292.171,160.697 Z M292.171,166.753 L246.58,166.753 L292.171,166.753 Z" id="Stroke-124" stroke="#70927F" stroke-width="0.25"></path>
        <path d="M374.951,142.265 L379.264,145.035 L376.411,149.477 L372.098,146.706 L374.951,142.265 Z M380.326,134.533 L380.591,134.475 C384.761,136.972 387.476,136.852 388.84,134.727 L388.882,134.663 C390.039,132.86 389.461,130.716 387.144,129.228 C385.116,127.925 382.864,127.751 380.264,128.4 L379.504,124.275 C382.735,123.35 386.08,123.452 389.556,125.685 C394.062,128.579 395.507,133.054 392.923,137.077 L392.881,137.142 C390.277,141.197 386.169,141.15 382.204,139.467 L380.228,141.835 L377.621,140.161 L380.326,134.533 L380.326,134.533 Z" id="Fill-125" fill="#A5BBAA"></path>
        <path d="M102.486,316.838 L102.486,316.838 C96.682,316.838 91.977,321.543 91.977,327.347 L91.977,395.215 C91.977,396.731 93.207,397.962 94.724,397.962 L110.248,397.962 C111.765,397.962 112.995,396.731 112.995,395.215 L112.995,327.347 C112.995,321.543 108.29,316.838 102.486,316.838" id="Fill-126" fill="#E8DFCF"></path>
        <path d="M111.784,358.38 L104.867,358.38 C102.006,358.38 99.687,356.061 99.687,353.2 C99.687,350.341 102.006,348.021 104.867,348.021 L111.784,348.021 C115.634,348.021 118.766,344.889 118.766,341.039 L118.766,333.792 C118.766,330.932 121.085,328.613 123.945,328.613 C126.805,328.613 129.124,330.932 129.124,333.792 L129.124,341.039 C129.124,350.601 121.345,358.38 111.784,358.38" id="Fill-127" fill="#E8DFCF"></path>
        <path d="M100.809,372.026 L93.561,372.026 C83.999,372.026 76.221,364.247 76.221,354.686 L76.221,347.768 C76.221,344.907 78.54,342.589 81.4,342.589 C84.26,342.589 86.579,344.907 86.579,347.768 L86.579,354.686 C86.579,358.535 89.711,361.667 93.561,361.667 L100.809,361.667 C103.669,361.667 105.988,363.986 105.988,366.847 C105.988,369.707 103.669,372.026 100.809,372.026" id="Fill-128" fill="#E8DFCF"></path>
        <polygon id="Fill-129" fill="#F3F5F4" points="96.502 332.233 97.365 332.233 97.365 328.631 96.502 328.631"></polygon>
        <polygon id="Fill-130" fill="#F3F5F4" points="107.511 326.829 108.374 326.829 108.374 323.227 107.511 323.227"></polygon>
        <polygon id="Fill-131" fill="#F3F5F4" points="101.378 347.768 102.241 347.768 102.241 344.166 101.378 344.166"></polygon>
        <polygon id="Fill-132" fill="#F3F5F4" points="104.435 336.859 105.298 336.859 105.298 333.257 104.435 333.257"></polygon>
        <polygon id="Fill-133" fill="#F3F5F4" points="109.152 367.693 110.015 367.693 110.015 364.09 109.152 364.09"></polygon>
        <polygon id="Fill-134" fill="#F3F5F4" points="120.921 335.594 121.785 335.594 121.785 331.99 120.921 331.99"></polygon>
        <polygon id="Fill-135" fill="#F3F5F4" points="96.502 359.201 97.365 359.201 97.365 355.598 96.502 355.598"></polygon>
        <polygon id="Fill-136" fill="#F3F5F4" points="97.403 374.59 98.266 374.59 98.266 370.987 97.403 370.987"></polygon>
        <polygon id="Fill-137" fill="#F3F5F4" points="105.509 358.377 106.373 358.377 106.373 354.774 105.509 354.774"></polygon>
        <polygon id="Fill-138" fill="#F3F5F4" points="79.253 359.109 80.116 359.109 80.116 355.506 79.253 355.506"></polygon>
        <polygon id="Fill-139" fill="#F3F5F4" points="83.392 352.386 84.255 352.386 84.255 348.782 83.392 348.782"></polygon>
        <polygon id="Fill-140" fill="#F3F5F4" points="85.294 362.712 86.157 362.712 86.157 359.109 85.294 359.109"></polygon>
        <polygon id="Fill-141" fill="#F3F5F4" points="109.913 344.643 110.776 344.643 110.776 341.04 109.913 341.04"></polygon>
        <polygon id="Fill-142" fill="#F3F5F4" points="122.723 349.569 123.586 349.569 123.586 345.967 122.723 345.967"></polygon>
        <path d="M120.292,378.028 L85.053,378.028 C84.101,378.028 83.367,378.867 83.493,379.811 L87.144,407.144 C87.517,409.936 89.899,412.021 92.716,412.021 L113.236,412.021 C116.101,412.021 118.507,409.867 118.823,407.021 L121.856,379.776 C121.96,378.844 121.23,378.028 120.292,378.028" id="Fill-143" fill="#F3F5F4"></path>
        <polyline id="Fill-144" fill="#70927F" points="120.217 394.501 120.834 388.962 84.715 388.962 85.455 394.501 120.217 394.501"></polyline>
        <path d="M94.133,237.198 C94.133,242.025 90.22,245.938 85.392,245.938 C80.565,245.938 76.652,242.025 76.652,237.198 C76.652,232.37 80.565,228.457 85.392,228.457 C90.22,228.457 94.133,232.37 94.133,237.198" id="Fill-145" fill="#F3F5F4"></path>
        <path d="M94.133,237.198 C94.133,242.025 90.22,245.938 85.392,245.938 C80.565,245.938 76.652,242.025 76.652,237.198 C76.652,232.37 80.565,228.457 85.392,228.457 C90.22,228.457 94.133,232.37 94.133,237.198 Z" id="Stroke-146" stroke="#70927F" stroke-width="0.25"></path>
        <path d="M366.861,257.604 C366.861,262.431 362.948,266.345 358.121,266.345 C353.293,266.345 349.38,262.431 349.38,257.604 C349.38,252.776 353.293,248.863 358.121,248.863 C362.948,248.863 366.861,252.776 366.861,257.604" id="Fill-147" fill="#F3F5F4"></path>
        <path d="M366.861,257.604 C366.861,262.431 362.948,266.345 358.121,266.345 C353.293,266.345 349.38,262.431 349.38,257.604 C349.38,252.776 353.293,248.863 358.121,248.863 C362.948,248.863 366.861,252.776 366.861,257.604 Z" id="Stroke-148" stroke="#70927F" stroke-width="0.25"></path>
        <path d="M352.498,313.071 C352.498,315.485 350.542,317.441 348.128,317.441 C345.714,317.441 343.758,315.485 343.758,313.071 C343.758,310.658 345.714,308.701 348.128,308.701 C350.542,308.701 352.498,310.658 352.498,313.071" id="Fill-149" fill="#F3F5F4"></path>
        <path d="M352.498,313.071 C352.498,315.485 350.542,317.441 348.128,317.441 C345.714,317.441 343.758,315.485 343.758,313.071 C343.758,310.658 345.714,308.701 348.128,308.701 C350.542,308.701 352.498,310.658 352.498,313.071 Z" id="Stroke-150" stroke="#70927F" stroke-width="0.25"></path>
        <polyline id="Fill-151" fill="#F3F5F4" points="408.034 176.688 404.669 190.522 394.2 180.052 408.034 176.688"></polyline>
        <polygon id="Stroke-152" stroke="#70927F" stroke-width="0.25" points="408.034 176.688 404.669 190.522 394.2 180.052"></polygon>
        <polyline id="Fill-153" fill="#F3F5F4" points="174.677 137.671 162.516 145.074 162.516 130.268 174.677 137.671"></polyline>
        <polygon id="Stroke-154" stroke="#70927F" stroke-width="0.25" points="174.677 137.671 162.516 145.074 162.516 130.268"></polygon>
        <polyline id="Fill-155" fill="#F3F5F4" points="408.895 308.701 396.734 316.104 396.734 301.298 408.895 308.701"></polyline>
        <polygon id="Stroke-156" stroke="#70927F" stroke-width="0.25" points="408.895 308.701 396.734 316.104 396.734 301.298"></polygon>
        <path d="M422.249,281.692 L364.514,281.692 C360.983,281.692 358.121,278.829 358.121,275.298 L358.121,263.878 C358.121,260.347 360.983,257.484 364.514,257.484 L422.249,257.484 C425.779,257.484 428.642,260.347 428.642,263.878 L428.642,275.298 C428.642,278.829 425.779,281.692 422.249,281.692" id="Fill-157" fill="#FFFFFF"></path>
        <path d="M422.249,281.692 L364.514,281.692 C360.983,281.692 358.121,278.829 358.121,275.298 L358.121,263.878 C358.121,260.347 360.983,257.484 364.514,257.484 L422.249,257.484 C425.779,257.484 428.642,260.347 428.642,263.878 L428.642,275.298 C428.642,278.829 425.779,281.692 422.249,281.692 Z M416.177,263.532 L370.585,263.532 L416.177,263.532 Z M416.177,269.588 L370.585,269.588 L416.177,269.588 Z M416.177,275.645 L370.585,275.645 L416.177,275.645 Z" id="Stroke-158" stroke="#70927F" stroke-width="0.25"></path>
        <path d="M137.239,204.09 L79.505,204.09 C75.974,204.09 73.112,201.228 73.112,197.696 L73.112,186.276 C73.112,182.745 75.974,179.882 79.505,179.882 L137.239,179.882 C140.771,179.882 143.633,182.745 143.633,186.276 L143.633,197.696 C143.633,201.228 140.771,204.09 137.239,204.09" id="Fill-159" fill="#FFFFFF"></path>
        <path d="M137.239,204.09 L79.505,204.09 C75.974,204.09 73.112,201.228 73.112,197.696 L73.112,186.276 C73.112,182.745 75.974,179.882 79.505,179.882 L137.239,179.882 C140.771,179.882 143.633,182.745 143.633,186.276 L143.633,197.696 C143.633,201.228 140.771,204.09 137.239,204.09 Z M131.168,185.93 L85.577,185.93 L131.168,185.93 Z M131.168,191.986 L85.577,191.986 L131.168,191.986 Z M131.168,198.042 L85.577,198.042 L131.168,198.042 Z" id="Stroke-160" stroke="#70927F" stroke-width="0.25"></path>
    </g>
</svg>